<svg width="380" height="70" viewBox="0 0 380 70" fill="none" xmlns="http://www.w3.org/2000/svg">
<path d="M93.7578 54.6094V42.9141C93.7578 42.0547 93.6094 41.3125 93.3125 40.6875C93.0156 40.0625 92.5625 39.5781 91.9531 39.2344C91.3438 38.8906 90.5703 38.7188 89.6328 38.7188C88.8047 38.7188 88.0781 38.8594 87.4531 39.1406C86.8438 39.4219 86.375 39.8203 86.0469 40.3359C85.7188 40.8359 85.5547 41.4141 85.5547 42.0703H79.3438C79.3438 41.0234 79.5938 40.0312 80.0938 39.0938C80.5938 38.1406 81.3047 37.2969 82.2266 36.5625C83.1641 35.8125 84.2812 35.2266 85.5781 34.8047C86.8906 34.3828 88.3594 34.1719 89.9844 34.1719C91.9062 34.1719 93.6172 34.5 95.1172 35.1562C96.6328 35.7969 97.8203 36.7656 98.6797 38.0625C99.5547 39.3594 99.9922 40.9922 99.9922 42.9609V54.0234C99.9922 55.2891 100.07 56.375 100.227 57.2812C100.398 58.1719 100.648 58.9453 100.977 59.6016V60H94.6719C94.375 59.3594 94.1484 58.5469 93.9922 57.5625C93.8359 56.5625 93.7578 55.5781 93.7578 54.6094ZM94.625 44.5547L94.6719 48.2344H90.7578C89.7891 48.2344 88.9375 48.3359 88.2031 48.5391C87.4688 48.7266 86.8672 49.0078 86.3984 49.3828C85.9297 49.7422 85.5781 50.1797 85.3438 50.6953C85.1094 51.1953 84.9922 51.7656 84.9922 52.4062C84.9922 53.0312 85.1328 53.5938 85.4141 54.0938C85.7109 54.5938 86.1328 54.9922 86.6797 55.2891C87.2422 55.5703 87.8984 55.7109 88.6484 55.7109C89.7422 55.7109 90.6953 55.4922 91.5078 55.0547C92.3203 54.6016 92.9531 54.0547 93.4062 53.4141C93.8594 52.7734 94.1016 52.1641 94.1328 51.5859L95.9141 54.2578C95.6953 54.8984 95.3672 55.5781 94.9297 56.2969C94.4922 57.0156 93.9297 57.6875 93.2422 58.3125C92.5547 58.9375 91.7266 59.4531 90.7578 59.8594C89.7891 60.2656 88.6641 60.4688 87.3828 60.4688C85.7422 60.4688 84.2734 60.1406 82.9766 59.4844C81.6797 58.8281 80.6562 57.9297 79.9062 56.7891C79.1562 55.6484 78.7812 54.3516 78.7812 52.8984C78.7812 51.5547 79.0312 50.3672 79.5312 49.3359C80.0312 48.3047 80.7734 47.4375 81.7578 46.7344C82.7422 46.0156 83.9609 45.4766 85.4141 45.1172C86.8828 44.7422 88.5625 44.5547 90.4531 44.5547H94.625ZM118.958 39.8203V60H112.77V34.6406H118.63L118.958 39.8203ZM126.669 34.4766L126.575 40.2422C126.231 40.1797 125.841 40.1328 125.403 40.1016C124.981 40.0703 124.583 40.0547 124.208 40.0547C123.255 40.0547 122.419 40.1875 121.7 40.4531C120.981 40.7031 120.38 41.0703 119.895 41.5547C119.427 42.0391 119.067 42.6328 118.817 43.3359C118.567 44.0234 118.427 44.8047 118.395 45.6797L117.059 45.5156C117.059 43.9062 117.223 42.4141 117.552 41.0391C117.88 39.6641 118.356 38.4609 118.981 37.4297C119.606 36.3984 120.388 35.6016 121.325 35.0391C122.278 34.4609 123.372 34.1719 124.606 34.1719C124.95 34.1719 125.317 34.2031 125.708 34.2656C126.114 34.3125 126.434 34.3828 126.669 34.4766ZM143.455 23.9766V60H137.267V23.9766H143.455ZM159.345 34.6406L148.306 47.0391L142.33 53.1094L140.361 48.3047L144.978 42.4922L151.869 34.6406H159.345ZM153.017 60L145.166 48.1875L149.291 44.1797L160.189 60H153.017ZM195.894 25.875V60H189.448V25.875H195.894ZM209.652 40.6172V45.7031H194.206V40.6172H209.652ZM211.456 25.875V30.9609H194.206V25.875H211.456ZM229.133 34.6406V60H222.922V34.6406H229.133ZM222.5 28.0078C222.5 27.0859 222.812 26.3203 223.438 25.7109C224.078 25.1016 224.938 24.7969 226.016 24.7969C227.094 24.7969 227.945 25.1016 228.57 25.7109C229.211 26.3203 229.531 27.0859 229.531 28.0078C229.531 28.9141 229.211 29.6719 228.57 30.2812C227.945 30.8906 227.094 31.1953 226.016 31.1953C224.938 31.1953 224.078 30.8906 223.438 30.2812C222.812 29.6719 222.5 28.9141 222.5 28.0078ZM248.309 40.0547V60H242.122V34.6406H247.934L248.309 40.0547ZM247.325 46.4062H245.497C245.512 44.5625 245.762 42.8906 246.247 41.3906C246.731 39.8906 247.411 38.6016 248.286 37.5234C249.177 36.4453 250.231 35.6172 251.45 35.0391C252.669 34.4609 254.028 34.1719 255.528 34.1719C256.747 34.1719 257.848 34.3438 258.833 34.6875C259.817 35.0312 260.661 35.5781 261.364 36.3281C262.083 37.0781 262.63 38.0625 263.005 39.2812C263.395 40.4844 263.591 41.9688 263.591 43.7344V60H257.356V43.6875C257.356 42.5312 257.184 41.6172 256.841 40.9453C256.512 40.2734 256.028 39.7969 255.387 39.5156C254.762 39.2344 253.989 39.0938 253.067 39.0938C252.114 39.0938 251.278 39.2891 250.559 39.6797C249.856 40.0547 249.262 40.5781 248.778 41.25C248.309 41.9219 247.95 42.6953 247.7 43.5703C247.45 44.4453 247.325 45.3906 247.325 46.4062ZM291.462 54.6094V24H297.697V60H292.072L291.462 54.6094ZM275.173 47.625V47.1328C275.173 45.1953 275.392 43.4375 275.83 41.8594C276.283 40.2656 276.939 38.8984 277.798 37.7578C278.658 36.6172 279.697 35.7344 280.916 35.1094C282.15 34.4844 283.548 34.1719 285.111 34.1719C286.627 34.1719 287.947 34.4766 289.072 35.0859C290.212 35.6953 291.181 36.5625 291.978 37.6875C292.791 38.8125 293.439 40.1484 293.923 41.6953C294.408 43.2266 294.759 44.9141 294.978 46.7578V48.0938C294.759 49.8906 294.408 51.5391 293.923 53.0391C293.439 54.5391 292.791 55.8516 291.978 56.9766C291.181 58.0859 290.212 58.9453 289.072 59.5547C287.931 60.1641 286.595 60.4688 285.064 60.4688C283.517 60.4688 282.127 60.1484 280.892 59.5078C279.673 58.8672 278.634 57.9688 277.775 56.8125C276.931 55.6562 276.283 54.2969 275.83 52.7344C275.392 51.1719 275.173 49.4688 275.173 47.625ZM281.384 47.1328V47.625C281.384 48.7188 281.478 49.7422 281.666 50.6953C281.853 51.6484 282.158 52.4922 282.58 53.2266C283.002 53.9453 283.541 54.5078 284.197 54.9141C284.869 55.3203 285.681 55.5234 286.634 55.5234C287.853 55.5234 288.853 55.2578 289.634 54.7266C290.431 54.1797 291.048 53.4375 291.486 52.5C291.923 51.5469 292.205 50.4766 292.33 49.2891V45.6094C292.267 44.6719 292.103 43.8047 291.837 43.0078C291.587 42.2109 291.228 41.5234 290.759 40.9453C290.306 40.3672 289.744 39.9141 289.072 39.5859C288.4 39.2578 287.603 39.0938 286.681 39.0938C285.728 39.0938 284.916 39.3047 284.244 39.7266C283.572 40.1328 283.025 40.7031 282.603 41.4375C282.181 42.1719 281.869 43.0234 281.666 43.9922C281.478 44.9609 281.384 46.0078 281.384 47.1328ZM321.889 60.4688C319.967 60.4688 318.241 60.1562 316.709 59.5312C315.178 58.9062 313.873 58.0391 312.795 56.9297C311.733 55.8047 310.913 54.5 310.334 53.0156C309.772 51.5156 309.491 49.9062 309.491 48.1875V47.25C309.491 45.2969 309.772 43.5234 310.334 41.9297C310.897 40.3203 311.694 38.9375 312.725 37.7812C313.756 36.625 314.991 35.7344 316.428 35.1094C317.866 34.4844 319.452 34.1719 321.186 34.1719C322.983 34.1719 324.569 34.4766 325.944 35.0859C327.319 35.6797 328.467 36.5234 329.389 37.6172C330.311 38.7109 331.006 40.0234 331.475 41.5547C331.944 43.0703 332.178 44.75 332.178 46.5938V49.1953H312.303V44.9297H326.084V44.4609C326.053 43.4766 325.866 42.5781 325.522 41.7656C325.178 40.9375 324.647 40.2812 323.928 39.7969C323.209 39.2969 322.28 39.0469 321.139 39.0469C320.217 39.0469 319.413 39.25 318.725 39.6562C318.053 40.0469 317.491 40.6094 317.038 41.3438C316.6 42.0625 316.272 42.9219 316.053 43.9219C315.834 44.9219 315.725 46.0312 315.725 47.25V48.1875C315.725 49.25 315.866 50.2344 316.147 51.1406C316.444 52.0469 316.873 52.8359 317.436 53.5078C318.014 54.1641 318.702 54.6797 319.498 55.0547C320.311 55.4141 321.233 55.5938 322.264 55.5938C323.561 55.5938 324.733 55.3438 325.78 54.8438C326.842 54.3281 327.764 53.5703 328.545 52.5703L331.663 55.8047C331.131 56.5859 330.413 57.3359 329.506 58.0547C328.616 58.7734 327.538 59.3594 326.272 59.8125C325.006 60.25 323.545 60.4688 321.889 60.4688ZM349.714 39.8203V60H343.527V34.6406H349.386L349.714 39.8203ZM357.425 34.4766L357.331 40.2422C356.987 40.1797 356.597 40.1328 356.159 40.1016C355.737 40.0703 355.339 40.0547 354.964 40.0547C354.011 40.0547 353.175 40.1875 352.456 40.4531C351.737 40.7031 351.136 41.0703 350.652 41.5547C350.183 42.0391 349.823 42.6328 349.573 43.3359C349.323 44.0234 349.183 44.8047 349.152 45.6797L347.816 45.5156C347.816 43.9062 347.98 42.4141 348.308 41.0391C348.636 39.6641 349.112 38.4609 349.737 37.4297C350.362 36.3984 351.144 35.6016 352.081 35.0391C353.034 34.4609 354.128 34.1719 355.362 34.1719C355.706 34.1719 356.073 34.2031 356.464 34.2656C356.87 34.3125 357.191 34.3828 357.425 34.4766Z" fill="white"/>
<path d="M10 1H60C64.9706 1 69 5.02944 69 10V60C69 64.9706 64.9706 69 60 69H10C5.02944 69 1 64.9706 1 60V10C1 5.02944 5.02944 1 10 1Z" fill="#0000B3" stroke="white" stroke-width="2"/>
<line x1="23" y1="10" x2="23" y2="60" stroke="white" stroke-width="8"/>
<line x1="26" y1="39" x2="37" y2="39" stroke="white" stroke-width="8"/>
<line x1="26" y1="14" x2="37" y2="14" stroke="white" stroke-width="8"/>
<path d="M36 10C44.8673 10.2865 51.9678 17.5645 51.9678 26.501C51.9675 35.4372 44.8671 42.7134 36 43V35C40.9705 35 45 31.1944 45 26.5C45 21.9522 41.2183 18.2383 36.4629 18.0107L36 18V10Z" fill="white"/>
</svg>
